# File created by Blade
# Date/Time:  Wed Apr 08 17:24:36 2015
# Frame Rate: 120.000 fps
#------------------------------------------------------
:FULLY-SPECIFIED
:DEGREES
1370
root 5.880871 38.706304 6.412907 198.324893 -26.015230 -164.415393
Spine -23.250119 0.359645 -0.702299
Head 8.788503 9.230814 9.658622
LeftShoulder -6.456282 20.367693 22.301433
LeftArm 5.939115 1.091058 -64.488398
LeftForeArm 15.865802 -0.000000 49.946571
LeftHand -14.734976 -0.000000 -10.677814
LeftHandThumb1 -26.253704 0.000000 33.147579
RightShoulder -37.407183 -50.523018 14.193386
RightArm 43.748683 -2.221659 39.633980
RightForeArm 24.541633 -0.000000 32.662645
RightHand -6.586156 0.000000 23.007893
RightHandThumb1 -24.326973 -0.000000 -32.862282
LeftUpLeg -36.887415 28.417842 -15.638488
LeftLeg 19.934765 -0.000000 -0.000000
LeftFoot 4.756906 14.053741 -4.174552
LeftToeBase -14.439905 -0.000000 0.000000
RightUpLeg -45.385008 -27.749369 18.911045
RightLeg 93.083611 -0.000000 -0.000000
RightFoot 4.946721 1.219692 32.072072
RightToeBase -10.885555 -0.000000 0.000000
1371
root 5.795536 38.589054 6.460113 198.495619 -25.693461 -165.409196
Spine -23.108909 0.940127 -1.861501
Head 8.769203 9.454632 9.388503
LeftShoulder -6.678962 20.346321 22.109977
LeftArm 5.735438 0.132909 -64.092349
LeftForeArm 15.863488 -0.000000 49.382988
LeftHand -14.598759 0.000000 -10.317623
LeftHandThumb1 -26.253704 0.000000 33.147579
RightShoulder -36.349591 -50.308022 12.978936
RightArm 43.874800 -0.752086 39.581026
RightForeArm 24.643994 -0.000000 31.911061
RightHand -6.127433 -0.000000 22.453247
RightHandThumb1 -24.326973 -0.000000 -32.862282
LeftUpLeg -36.718806 28.027818 -16.285204
LeftLeg 20.627786 -0.000000 -0.000000
LeftFoot 4.384796 14.209550 -4.278623
LeftToeBase -14.864054 -0.000000 0.000000
RightUpLeg -43.903067 -27.075637 18.578460
RightLeg 89.463656 -0.000000 -0.000000
RightFoot 5.672835 1.376954 32.525239
RightToeBase -11.707809 -0.000000 0.000000
1372
root 5.708864 38.469340 6.518320 198.748899 -25.232758 -166.428783
Spine -23.028759 1.629237 -3.097414
Head 8.726376 9.665955 9.144713
LeftShoulder -6.880793 20.312867 21.911074
LeftArm 5.465537 -0.751715 -63.672538
LeftForeArm 15.972573 -0.000000 48.841639
LeftHand -14.714091 -0.000000 -10.136694
LeftHandThumb1 -26.253704 0.000000 33.147579
RightShoulder -35.200148 -49.992537 11.669019
RightArm 43.972248 0.641574 39.642505
RightForeArm 24.589509 -0.000000 31.180355
RightHand -5.774685 0.000000 21.862165
RightHandThumb1 -24.326973 -0.000000 -32.862282
LeftUpLeg -36.701182 27.775947 -17.109770
LeftLeg 21.324759 -0.000000 -0.000000
LeftFoot 4.003095 14.227395 -4.250125
LeftToeBase -15.083653 -0.000000 0.000000
RightUpLeg -42.484376 -26.203308 18.126964
RightLeg 85.963774 -0.000000 -0.000000
RightFoot 6.557888 2.034621 33.678513
RightToeBase -11.498546 -0.000000 0.000000
1373
root 5.616539 38.343280 6.578672 198.853671 -24.640294 -167.522285
Spine -22.707623 2.393163 -4.444814
Head 8.636493 9.919060 8.904123
LeftShoulder -7.143337 20.342946 21.724393
LeftArm 5.317176 -1.557040 -63.321791
LeftForeArm 15.839715 -0.000000 48.164160
LeftHand -14.617480 -0.000000 -10.040130
LeftHandThumb1 -26.253704 0.000000 33.147579
RightShoulder -34.001655 -49.631447 10.392637
RightArm 44.135523 2.080983 39.795515
RightForeArm 24.469683 -0.000000 30.459741
RightHand -5.506003 -0.000000 21.226479
RightHandThumb1 -24.326973 -0.000000 -32.862282
LeftUpLeg -36.440881 27.617408 -17.929970
LeftLeg 21.900495 -0.000000 -0.000000
LeftFoot 3.694192 14.276680 -4.308618
LeftToeBase -15.568820 -0.000000 0.000000
RightUpLeg -40.908791 -25.328900 17.456299
RightLeg 82.631100 -0.000000 -0.000000
RightFoot 7.014023 2.740220 34.352311
RightToeBase -9.943444 -0.000000 0.000000
1374
root 5.531191 38.219900 6.645949 199.067822 -24.233860 -168.566631
Spine -22.518143 2.953640 -5.652277
Head 8.549219 10.186584 8.641471
LeftShoulder -7.383652 20.341979 21.509898
LeftArm 5.012855 -2.298688 -62.994441
LeftForeArm 15.609110 -0.000000 47.527721
LeftHand -14.702512 -0.000000 -9.972223
LeftHandThumb1 -26.253704 0.000000 33.147579
RightShoulder -32.826340 -49.305996 9.139138
RightArm 44.380132 3.528136 39.954009
RightForeArm 24.089586 -0.000000 29.792081
RightHand -5.205236 -0.000000 20.702147
RightHandThumb1 -24.326973 -0.000000 -32.862282
LeftUpLeg -36.315851 27.247502 -18.720151
LeftLeg 22.502850 -0.000000 -0.000000
LeftFoot 3.334490 14.383388 -4.360908
LeftToeBase -15.861342 -0.000000 0.000000
RightUpLeg -39.544067 -24.583175 16.987074
RightLeg 79.309695 -0.000000 -0.000000
RightFoot 7.416695 3.215942 34.171798
RightToeBase -9.712339 -0.000000 0.000000
1375
root 5.435219 38.094659 6.707893 199.143828 -23.656567 -169.643407
Spine -22.175238 3.680123 -6.942952
Head 8.419190 10.480192 8.392289
LeftShoulder -7.575788 20.390981 21.305205
LeftArm 4.689873 -3.029287 -62.740642
LeftForeArm 15.181464 -0.000000 46.828243
LeftHand -14.682463 -0.000000 -9.761006
LeftHandThumb1 -26.253704 0.000000 33.147579
RightShoulder -31.643899 -48.892179 7.907262
RightArm 44.627734 4.909971 40.165423
RightForeArm 23.731754 0.000000 29.186671
RightHand -5.017717 -0.000000 20.098816
RightHandThumb1 -24.326973 -0.000000 -32.862282
LeftUpLeg -35.987879 27.095969 -19.553242
LeftLeg 22.965161 -0.000000 -0.000000
LeftFoot 2.998698 14.409964 -4.305944
LeftToeBase -16.154529 -0.000000 0.000000
RightUpLeg -38.008173 -23.764727 16.306062
RightLeg 76.034026 -0.000000 -0.000000
RightFoot 7.877799 3.678546 33.859237
RightToeBase -10.145501 -0.000000 0.000000
1376
root 5.352944 37.974454 6.784821 199.352990 -23.190570 -170.552665
Spine -22.018888 4.288440 -7.982752
Head 8.346189 10.799855 8.031302
LeftShoulder -7.843502 20.535049 21.038512
LeftArm 4.445541 -3.743058 -62.556318
LeftForeArm 14.434119 -0.000000 46.077201
LeftHand -14.525914 -0.000000 -9.630934
LeftHandThumb1 -26.253704 0.000000 33.147579
RightShoulder -30.456765 -48.476269 6.600495
RightArm 44.970400 6.290632 40.480707
RightForeArm 23.282496 -0.000000 28.635345
RightHand -4.773526 -0.000000 19.801336
RightHandThumb1 -24.326973 -0.000000 -32.862282
LeftUpLeg -35.946735 26.737867 -20.286123
LeftLeg 23.532229 -0.000000 -0.000000
LeftFoot 2.612821 14.485084 -4.358908
LeftToeBase -16.398095 -0.000000 0.000000
RightUpLeg -36.722166 -22.945599 15.907713
RightLeg 72.728851 -0.000000 -0.000000
RightFoot 8.299563 4.163017 33.488880
RightToeBase -10.376910 -0.000000 0.000000
1377
root 5.274382 37.857877 6.870934 199.589480 -22.787784 -171.369637
Spine -21.914714 4.886160 -8.893668
Head 8.279280 11.105659 7.639715
LeftShoulder -8.078689 20.694660 20.795100
LeftArm 4.263477 -4.601118 -62.609316
LeftForeArm 13.895947 -0.000000 45.239649
LeftHand -14.522604 0.000000 -9.305214
LeftHandThumb1 -26.253704 0.000000 33.147579
RightShoulder -29.352567 -48.038132 5.344107
RightArm 45.363432 7.610045 40.805634
RightForeArm 22.812164 -0.000000 28.171046
RightHand -4.664924 -0.000000 19.453239
RightHandThumb1 -24.326973 -0.000000 -32.862282
LeftUpLeg -35.916653 26.159507 -20.866201
LeftLeg 24.026612 -0.000000 -0.000000
LeftFoot 2.225513 14.626219 -4.523930
LeftToeBase -16.596987 -0.000000 0.000000
RightUpLeg -35.547897 -22.192176 15.630401
RightLeg 69.509187 -0.000000 -0.000000
RightFoot 8.667713 4.834135 33.201313
RightToeBase -10.302921 -0.000000 0.000000
1378
root 5.204404 37.744318 6.965804 199.809014 -22.382588 -172.057591
Spine -21.810917 5.566756 -9.689503
Head 8.172449 11.343166 7.235068
LeftShoulder -8.361008 20.914434 20.441691
LeftArm 4.178771 -4.966994 -62.474902
LeftForeArm 12.883883 -0.000000 44.386762
LeftHand -15.352143 -0.000000 -9.352595
LeftHandThumb1 -26.253704 0.000000 33.147579
RightShoulder -28.346919 -47.549736 4.179613
RightArm 45.713866 8.861727 41.085676
RightForeArm 22.322353 -0.000000 27.890161
RightHand -4.593435 -0.000000 19.067125
RightHandThumb1 -24.326973 -0.000000 -32.862282
LeftUpLeg -36.031936 25.577508 -21.371881
LeftLeg 24.637359 -0.000000 -0.000000
LeftFoot 1.886089 14.855322 -4.642660
LeftToeBase -16.952256 -0.000000 0.000000
RightUpLeg -34.458561 -21.443954 15.496912
RightLeg 66.374118 -0.000000 -0.000000
RightFoot 8.867410 5.493165 32.962454
RightToeBase -10.289808 -0.000000 0.000000
